<svg xmlns="http://www.w3.org/2000/svg" width="380" height="256" viewBox="0 0 380 256">
    <defs>
        <linearGradient id="a" x1="0%" y1="95.747%" y2="4.253%">
            <stop offset="0%" stop-color="#342E54"/>
            <stop offset="100%" stop-color="#054A91"/>
        </linearGradient>
    </defs>
    <path fill="url(#a)" fill-rule="evenodd" d="M177.555 193.134l81.344 76.158a7.858 7.858 0 0 0 5.37 2.123h128.052c2.722 4.72 7.81 7.896 13.636 7.896 8.695 0 15.744-7.07 15.744-15.792s-7.049-15.792-15.744-15.792c-5.827 0-10.914 3.176-13.636 7.896H267.373l-69.634-65.194 13.737-1.841L297.303 8.97c3.758-7.865 13.16-11.185 21-7.415a15.768 15.768 0 0 1 7.393 7.415l85.826 179.618 196.818 26.376c8.618 1.155 14.67 9.1 13.52 17.744a15.81 15.81 0 0 1-4.746 9.343L473.34 379.437l15.325 83.836-86.734-48.723a7.852 7.852 0 0 0-3.846-1.006H277.906c-2.722-4.72-7.81-7.895-13.636-7.895-8.695 0-15.743 7.07-15.743 15.792s7.048 15.792 15.743 15.792c5.828 0 10.916-3.176 13.638-7.897H396.03l96.321 54.108 16.801 91.913c1.568 8.578-4.093 16.808-12.645 18.381a15.7 15.7 0 0 1-10.325-1.64l-174.684-94.71-174.684 94.71c-7.649 4.147-17.2 1.288-21.335-6.384a15.835 15.835 0 0 1-1.635-10.357l35.813-195.92L5.884 242.051c-6.295-6.015-6.537-16.011-.54-22.327a15.726 15.726 0 0 1 9.314-4.76l162.897-21.83zM278.52 334c-2.735-4.782-7.847-8-13.702-8-8.736 0-15.818 7.163-15.818 16s7.082 16 15.818 16c5.855 0 10.967-3.218 13.702-8h114.96c2.735 4.782 7.847 8 13.702 8 8.736 0 15.818-7.163 15.818-16s-7.082-16-15.818-16c-5.855 0-10.967 3.218-13.702 8H278.52z" opacity=".062" transform="translate(0 -121)"/>
</svg>
